<svg width="167" height="40" viewBox="0 0 167 40" fill="none" xmlns="http://www.w3.org/2000/svg">
<path d="M41.5811 17.4738L45.8871 6.1875H47.5467L51.836 17.4738H50.3377L49.1451 14.427H44.2275L43.0349 17.4738H41.5838H41.5811ZM44.6445 13.1539H48.7226L46.6738 7.71921L44.6417 13.1539H44.6445Z" fill="white"></path>
<path d="M58.0629 9.25098H59.3861V17.4738H58.2408L58.0629 16.3786C57.5792 16.9901 56.7897 17.5711 55.4359 17.5711C53.629 17.5711 52.1946 16.5565 52.1946 13.8294V9.25098H53.5178V13.7488C53.5178 15.4584 54.2906 16.3619 55.6611 16.3619C57.1594 16.3619 58.0629 15.2166 58.0629 13.3624V9.25098Z" fill="white"></path>
<path d="M61.5018 10.46H60.0173V9.2508H61.5018V6.94629H62.825V9.2508H64.9544V10.46H62.825V15.3137C62.825 16.0059 63.0669 16.2644 63.7757 16.2644H65.0823V17.4737H63.6479C62.0689 17.4737 61.5046 16.7815 61.5046 15.3304V10.46H61.5018Z" fill="white"></path>
<path d="M73.1719 12.8926V17.471H71.8487V12.9732C71.8487 11.2635 71.0259 10.3601 69.6081 10.3601C68.0764 10.3601 67.1257 11.5054 67.1257 13.3596V17.471H65.8025V6.1875H67.1257V10.6047C67.6094 9.83191 68.4489 9.15362 69.8333 9.15362C71.6708 9.15362 73.1692 10.1683 73.1692 12.8953L73.1719 12.8926Z" fill="white"></path>
<path d="M74.0916 11.5727C74.0916 8.36476 75.8318 6.09082 78.3809 6.09082C80.93 6.09082 82.6536 8.36476 82.6536 11.5727V12.0898C82.6536 15.459 80.9134 17.5717 78.3809 17.5717C75.8484 17.5717 74.0916 15.459 74.0916 12.0898V11.5727ZM81.2831 11.62C81.2831 8.94297 80.1211 7.33064 78.3809 7.33064C76.6407 7.33064 75.462 8.94297 75.462 11.62V12.0397C75.462 14.7168 76.624 16.3291 78.3809 16.3291C80.1378 16.3291 81.2831 14.7168 81.2831 12.0397V11.62Z" fill="white"></path>
<path d="M50.399 28.7354C50.399 31.2512 48.7227 32.9441 46.4488 32.9441C45.0616 32.9441 44.1276 32.3798 43.6272 31.5903L43.4493 32.8468H42.304V21.5605H43.6272V25.9472C44.1748 25.1883 45.0616 24.5294 46.4488 24.5294C48.7227 24.5294 50.399 26.0612 50.399 28.7382V28.7354ZM49.0452 28.7354C49.0452 26.9452 47.9499 25.7053 46.3209 25.7053C44.6919 25.7053 43.6133 26.9479 43.6133 28.7048C43.6133 30.4617 44.7085 31.7682 46.3209 31.7682C47.9332 31.7682 49.0452 30.5256 49.0452 28.7382V28.7354Z" fill="white"></path>
<path d="M50.3486 24.624H51.7525L54.2849 31.1873L56.7368 24.624H58.1406L54.3517 34.234C53.8346 35.5573 53.5288 36.0715 52.3696 36.0715H50.7906V34.8623H51.9665C52.7254 34.8623 52.8533 34.6677 53.1591 33.8949L53.5622 32.8941L50.3542 24.624H50.3486Z" fill="white"></path><path d="M68.0204 32.9408C64.843 32.9408 62.6357 30.5223 62.6357 27.2004C62.6357 23.8784 64.8457 21.46 68.0204 21.46C71.195 21.46 73.405 23.8784 73.405 27.2004C73.405 30.5223 71.195 32.9408 68.0204 32.9408ZM68.0204 31.651C70.3749 31.651 71.9706 29.7968 71.9706 27.2004C71.9706 24.604 70.3749 22.7498 68.0204 22.7498C65.6658 22.7498 64.0702 24.604 64.0702 27.2004C64.0702 29.7968 65.6658 31.651 68.0204 31.651Z" fill="white"></path>
<path d="M74.4226 21.5605H75.7458V28.9939L79.8739 24.624H81.503L78.295 28.0265L81.7281 32.8468H80.1325L77.4082 28.9772L75.7486 30.6869V32.8468H74.4254V21.5605H74.4226Z" fill="white"></path><path d="M83.3211 25.8331H81.8367V24.6238H83.3211V22.3193H84.6443V24.6238H86.7737V25.8331H84.6443V30.6867C84.6443 31.3789 84.8862 31.6375 85.5951 31.6375H86.9016V32.8467H85.4672C83.8882 32.8467 83.3239 32.1545 83.3239 30.7034V25.8331H83.3211Z" fill="white"></path><path d="M95.3881 31.6374V32.8467H94.6625C93.5673 32.8467 93.1948 32.3797 93.1781 31.5735C92.661 32.3157 91.841 32.944 90.4205 32.944C88.6135 32.944 87.3904 32.0405 87.3904 30.5422C87.3904 28.8965 88.5357 27.9791 90.6957 27.9791H93.1141V27.4148C93.1141 26.3501 92.3552 25.7052 91.0654 25.7052C89.9034 25.7052 89.1306 26.2528 88.9694 27.0923H87.6461C87.8407 25.48 89.1445 24.5293 91.1293 24.5293C93.2253 24.5293 94.4346 25.5773 94.4346 27.4954V31.0898C94.4346 31.5262 94.5958 31.6374 94.9655 31.6374H95.3853H95.3881ZM93.1141 29.0911H90.5678C89.3919 29.0911 88.7303 29.5275 88.7303 30.4615C88.7303 31.2677 89.4225 31.8153 90.5205 31.8153C92.1662 31.8153 93.1169 30.8646 93.1169 29.4941V29.0911H93.1141Z" fill="white"></path>
<path d="M10.282 17.4216C15.3775 16.582 19.3722 12.3705 20.2089 7.27503L20.4897 4.82596C20.5592 4.43678 20.2951 3.89471 19.803 3.93362C15.9529 4.23385 12.3196 5.50425 10.2987 6.32987C9.29512 6.74129 8.64185 7.71425 8.64185 8.7984V16.7877C8.64185 17.2603 9.06717 17.6217 9.53419 17.5467L10.282 17.4243V17.4216Z" fill="white"></path><path d="M22.6666 7.27486C23.5061 12.3704 27.5008 16.5819 32.5935 17.4214L33.3413 17.5437C33.8083 17.6215 34.2336 17.2602 34.2336 16.7848V8.79545C34.2336 7.7113 33.5804 6.73835 32.5768 6.32692C30.5531 5.49852 26.9226 4.2309 23.0724 3.93068C22.5776 3.89176 22.3246 4.43939 22.383 4.82301L22.6638 7.27208L22.6666 7.27486Z" fill="white"></path>
<path d="M32.5909 19.659C25.6273 21.0322 22.3943 25.6607 22.3943 34.4229C22.3943 34.8621 22.8307 35.1679 23.1977 34.9233C26.4001 32.7633 33.4471 27.1257 34.1726 20.0732C34.2004 19.1864 33.0913 19.6034 32.5909 19.659Z" fill="white"></path><path d="M10.2849 19.659C17.2485 21.0322 20.4815 25.6607 20.4815 34.4229C20.4815 34.8621 20.045 35.1679 19.6781 34.9233C16.4757 32.7633 9.4287 27.1257 8.70315 20.0732C8.67535 19.1864 9.78452 19.6034 10.2849 19.659Z" fill="white"></path>
</svg>